<svg width="10" height="10" viewBox="0 0 10 10" fill="none" xmlns="http://www.w3.org/2000/svg">
<rect width="10" height="10" fill="#E9ECF0"/>
<g id="Desktop - 1">
<rect width="1440" height="1024" transform="translate(-819 -259)" fill="#DBE2F1"/>
<g id="small phone">
<rect x="-264" y="-36" width="330" height="578" rx="29" fill="#F2F3F7"/>
<g id="night day time">
<rect x="-3.5" y="-3.5" width="33" height="17" rx="8.5" fill="white"/>
<g id="icon area">
<rect x="-1" y="-1" width="12" height="12" rx="6" fill="#2F2D51"/>
<g id="icon polution">
<path id="Union" fill-rule="evenodd" clip-rule="evenodd" d="M3.80622 2.05577L4.45389 2.44917L4.14967 3.00529C4.097 3.10159 3.99764 3.16318 3.88796 3.16752L3.33047 3.18957L3.35588 2.3526C3.36348 2.10213 3.61241 1.93805 3.80622 2.05577ZM2.14597 4.71938L2.78853 4.26126L3.07212 4.86976C3.11111 4.95342 3.11111 5.05003 3.07212 5.13369L2.78852 5.74221L2.12588 5.26978C1.94968 5.14415 1.96035 4.85171 2.14597 4.71938ZM3.35752 7.70519L3.33047 6.81388L3.88796 6.83593C3.99764 6.84027 4.097 6.90186 4.14967 6.99816L4.45389 7.5543L3.78509 7.96053C3.5919 8.07788 3.36472 7.9422 3.35752 7.70519ZM6.18544 7.9477L5.53787 7.55436L5.84212 6.99816C5.8948 6.90186 5.99416 6.84027 6.10384 6.83593L6.66119 6.81388L6.63578 7.65086C6.62818 7.90134 6.37924 8.06542 6.18544 7.9477ZM7.84569 5.28409L7.20324 5.74213L6.91968 5.13369C6.88069 5.05003 6.88069 4.95342 6.91968 4.86976L7.20323 4.26133L7.86577 4.73369C8.04197 4.85932 8.0313 5.15176 7.84569 5.28409ZM6.63413 2.29828L6.66119 3.18957L6.10384 3.16752C5.99416 3.16318 5.8948 3.10159 5.84212 3.00529L5.53788 2.44911L6.20657 2.04294C6.39976 1.92559 6.62694 2.06127 6.63413 2.29828ZM4.99586 6.52033C5.73051 6.52033 6.32606 5.84043 6.32606 5.00173C6.32606 4.16303 5.73051 3.48313 4.99586 3.48313C4.26121 3.48313 3.66566 4.16303 3.66566 5.00173C3.66566 5.84043 4.26121 6.52033 4.99586 6.52033Z" fill="white"/>
</g>
</g>
<rect x="-3.5" y="-3.5" width="33" height="17" rx="8.5" stroke="#2F2D51"/>
</g>
<rect x="-264" y="-36" width="330" height="578" rx="29" stroke="white" stroke-width="10"/>
</g>
</g>
</svg>
